<svg width="480" height="480" viewBox="0 0 480 480" fill="none" xmlns="http://www.w3.org/2000/svg">
<path d="M474.888 202.675L399.872 173.571L429.648 143.795L457.648 115.795C471.8 101.643 471.8 78.627 457.648 64.483C443.504 50.331 420.48 50.331 406.336 64.483L378.336 92.483L329.688 141.131L291.432 122.915C288.392 121.451 284.728 122.091 282.336 124.483L196.688 210.131H112H83.704C73.208 210.131 64.008 216.851 60.832 226.859L9.872 387.115C3.808 392.939 0 401.083 0 410.131V418.131C0 422.547 3.576 426.131 8 426.131H56H424C426.288 426.131 428.472 425.147 429.984 423.443C431.496 421.739 432.216 419.451 431.944 417.179L421.496 330.131H472C476.424 330.131 480 326.547 480 322.131V210.131C480 206.827 477.968 203.867 474.888 202.675ZM417.656 75.787C425.56 67.883 438.44 67.883 446.344 75.787C454.248 83.699 454.248 96.563 446.344 104.475L424 126.819L395.312 98.131L417.656 75.787ZM384 109.443L412.688 138.131L379.888 170.931L330.344 220.475L284.688 266.131H256C238.352 266.131 224 280.483 224 298.131C224 299.635 224.168 301.171 224.416 302.731C224.544 303.603 224.712 304.451 224.912 305.307C224.944 305.451 224.96 305.595 224.992 305.739C225.112 306.235 225.272 306.747 225.512 307.491C226.816 311.723 228.88 315.659 231.8 319.003L216 334.819L187.312 306.131L221.656 271.787L384 109.443ZM333.808 239.635L347.056 266.131H307.312L333.808 239.635ZM201.984 343.435L171.672 356.427L180.336 321.779L201.984 343.435ZM185.584 247.867C185.608 247.691 185.6 247.499 185.64 247.323C185.8 246.507 186.056 245.707 186.352 244.915C186.392 244.811 186.408 244.707 186.448 244.603C186.752 243.851 187.152 243.131 187.592 242.427C187.664 242.307 187.712 242.171 187.792 242.051C188.328 241.243 188.944 240.483 189.656 239.771L289.664 139.787L317.688 153.131L210.344 260.475C204.64 266.179 195.36 266.179 189.656 260.475C188.944 259.763 188.328 259.003 187.792 258.195C187.712 258.075 187.664 257.939 187.592 257.819C187.16 257.115 186.752 256.395 186.448 255.643C186.408 255.539 186.392 255.435 186.352 255.331C186.056 254.547 185.8 253.747 185.64 252.923C185.608 252.747 185.616 252.555 185.584 252.379C185.352 250.883 185.352 249.363 185.584 247.867ZM16 410.131C16 405.227 18.264 400.883 21.752 397.947C21.8 397.915 21.848 397.899 21.896 397.867C23.328 396.691 25.456 395.355 28.176 394.651C28.304 394.619 28.424 394.563 28.56 394.531C29.112 394.403 29.736 394.371 30.328 394.307C30.816 394.259 31.288 394.163 31.784 394.163C35.608 394.299 39.4 395.691 42.432 398.651C45.592 401.731 47.464 405.859 47.84 410.131H16ZM55.848 389.003C51.224 383.787 45 380.059 37.872 378.723C37.448 378.635 37 378.659 36.568 378.595C35.064 378.371 33.56 378.131 32 378.131C31.992 378.131 31.984 378.131 31.984 378.131C31.984 378.131 31.968 378.131 31.96 378.131C31.72 378.131 31.48 378.131 31.24 378.139C30.648 378.147 30.072 378.179 29.48 378.227L76.072 231.699C77.144 228.371 80.2 226.131 83.704 226.131H101.456L55.848 389.003ZM66.544 410.131L118.064 226.131H180.68L178.344 228.475C166.4 240.419 166.4 259.843 178.344 271.787C180.056 273.507 181.96 274.907 183.944 276.123C184.56 276.499 185.2 276.787 185.832 277.115C187.264 277.867 188.72 278.515 190.232 279.019C190.608 279.147 190.944 279.379 191.32 279.491L170.344 300.467C170.336 300.475 170.336 300.491 170.328 300.499C169.672 301.163 169.176 301.963 168.784 302.819C168.68 303.051 168.592 303.275 168.512 303.507C168.432 303.739 168.304 303.939 168.248 304.179L152.248 368.179C151.504 371.131 152.504 374.243 154.816 376.211C156.288 377.475 158.136 378.131 160 378.131C161.064 378.131 162.144 377.923 163.152 377.483L219.056 353.523C219.064 353.523 219.072 353.515 219.072 353.515L219.152 353.483C220.008 353.115 220.736 352.571 221.4 351.963C221.48 351.891 221.584 351.867 221.664 351.787L245.24 328.211C245.52 328.315 245.824 328.347 246.104 328.443C247.232 328.819 248.376 329.123 249.528 329.371C250.032 329.475 250.52 329.603 251.024 329.691C252.672 329.955 254.328 330.131 256 330.131H405.384L414.984 410.131H66.544V410.131ZM464 314.131H412.48H256C253.12 314.131 250.344 313.323 247.736 311.739C245.568 310.419 243.688 308.515 241.952 305.579C241.488 304.723 241.12 303.811 240.84 302.907C240.824 302.867 240.536 301.963 240.52 301.915C240.168 300.499 240 299.267 240 298.131C240 289.307 247.176 282.131 256 282.131H288H360C362.776 282.131 365.344 280.691 366.808 278.339C368.272 275.979 368.4 273.035 367.16 270.555L345.736 227.715L387.52 185.931L464 215.611V314.131Z" fill="white"/>
<path d="M136.271 232.015L96.2778 376.012L111.693 380.293L151.686 236.296L136.271 232.015Z" fill="white"/>
</svg>
