<svg width="512" height="512" viewBox="0 0 512 512" fill="none" xmlns="http://www.w3.org/2000/svg">
<path d="M135.5 60H90.5V15C90.5 6.716 97.216 0 105.5 0H225.5C233.784 0 240.5 6.716 240.5 15V60H195.5C187.22 60 180.5 66.72 180.5 75C180.5 83.27 173.77 90 165.5 90C157.23 90 150.5 83.27 150.5 75C150.5 66.72 143.78 60 135.5 60Z" fill="white"/>
<path d="M330.5 317V45C330.5 36.716 323.784 30 315.5 30H270.5V75C270.5 83.284 263.784 90 255.5 90H207.93C201.74 107.46 185.06 120 165.5 120C145.94 120 129.26 107.46 123.07 90H75.5C67.216 90 60.5 83.284 60.5 75V30H15.5C7.216 30 0.5 36.716 0.5 45V497C0.5 505.284 7.216 512 15.5 512H315.5C323.784 512 330.5 505.284 330.5 497V437H248.42L155.253 390.416C144.197 384.888 144.197 369.111 155.253 363.583L248.42 317H330.5ZM75.5 182H255.073C263.147 182 270.097 188.2 270.483 196.265C270.894 204.879 264.024 212 255.5 212H75.927C67.853 212 60.903 205.799 60.517 197.735C60.106 189.121 66.976 182 75.5 182ZM75.5 242H255.073C263.147 242 270.097 248.2 270.483 256.265C270.894 264.879 264.024 272 255.5 272H75.927C67.853 272 60.903 265.799 60.517 257.735C60.106 249.121 66.976 242 75.5 242ZM165.5 332H75.927C67.853 332 60.903 325.799 60.517 317.735C60.106 309.121 66.976 302 75.5 302H165.073C173.147 302 180.097 308.2 180.483 316.265C180.894 324.879 174.024 332 165.5 332Z" fill="white"/>
<path d="M195.5 377L240.5 354.5V399.5L195.5 377Z" fill="white"/>
<path d="M270.5 347H421.5V407H270.5V347Z" fill="white"/>
<path d="M511.5 377C511.5 393.54 498.04 407 481.5 407H451.5V347H481.5C498.04 347 511.5 360.46 511.5 377Z" fill="white"/>
</svg>
